<mxfile host="app.diagrams.net" modified="2024-02-29T01:41:18.935Z" agent="Mozilla/5.0 (Windows NT 10.0; Win64; x64) AppleWebKit/537.36 (KHTML, like Gecko) Chrome/121.0.0.0 Safari/537.36 Edg/121.0.0.0" etag="rnrpVGILRbr9iRF3slSE" version="23.1.6" type="google">
  <diagram id="jsPWKUhICCFtJn8K6CiC" name="Synoptique de niveau 2">
    <mxGraphModel grid="0" page="1" gridSize="10" guides="1" tooltips="1" connect="1" arrows="1" fold="1" pageScale="1" pageWidth="827" pageHeight="1169" math="0" shadow="0">
      <root>
        <mxCell id="0" />
        <mxCell id="1" parent="0" />
        <mxCell id="wHgIUSnhuIv8XCssy-d0-1" style="edgeStyle=orthogonalEdgeStyle;rounded=0;orthogonalLoop=1;jettySize=auto;html=1;exitX=0.25;exitY=0;exitDx=0;exitDy=0;entryX=0;entryY=0.706;entryDx=0;entryDy=0;entryPerimeter=0;" edge="1" parent="1">
          <mxGeometry relative="1" as="geometry">
            <mxPoint x="1152.75" y="454" as="sourcePoint" />
            <mxPoint x="1146" y="284.29999999999995" as="targetPoint" />
            <Array as="points">
              <mxPoint x="1125" y="454" />
              <mxPoint x="1125" y="377" />
              <mxPoint x="1126" y="377" />
              <mxPoint x="1126" y="284" />
              <mxPoint x="1146" y="284" />
            </Array>
          </mxGeometry>
        </mxCell>
        <mxCell id="wHgIUSnhuIv8XCssy-d0-2" value="Smosfets" style="edgeLabel;html=1;align=center;verticalAlign=middle;resizable=0;points=[];" connectable="0" vertex="1" parent="wHgIUSnhuIv8XCssy-d0-1">
          <mxGeometry x="-0.4922" relative="1" as="geometry">
            <mxPoint as="offset" />
          </mxGeometry>
        </mxCell>
        <mxCell id="102_xDrWK7W0VmhlA9GF-3" style="edgeStyle=orthogonalEdgeStyle;rounded=0;orthogonalLoop=1;jettySize=auto;html=1;exitX=0.75;exitY=1;exitDx=0;exitDy=0;startArrow=classic;startFill=1;" edge="1" parent="1">
          <mxGeometry relative="1" as="geometry">
            <mxPoint x="1505" y="756" as="targetPoint" />
            <mxPoint x="1245" y="576" as="sourcePoint" />
            <Array as="points">
              <mxPoint x="1245" y="636" />
              <mxPoint x="1305" y="636" />
              <mxPoint x="1305" y="756" />
            </Array>
          </mxGeometry>
        </mxCell>
        <mxCell id="102_xDrWK7W0VmhlA9GF-4" value="Scom" style="edgeLabel;html=1;align=center;verticalAlign=middle;resizable=0;points=[];" connectable="0" vertex="1" parent="102_xDrWK7W0VmhlA9GF-3">
          <mxGeometry x="0.5399" relative="1" as="geometry">
            <mxPoint as="offset" />
          </mxGeometry>
        </mxCell>
        <mxCell id="AZXQSuadQRg0XgxkF6D4-1" value="&lt;font style=&quot;font-size: 10px;&quot;&gt;UnitÃ© de traitement&amp;nbsp;&lt;br&gt;&lt;/font&gt;" style="rounded=0;whiteSpace=wrap;html=1;" vertex="1" parent="1">
          <mxGeometry x="1115" y="446" width="151" height="130" as="geometry" />
        </mxCell>
        <mxCell id="AZXQSuadQRg0XgxkF6D4-2" value="&lt;font style=&quot;font-size: 8px;&quot;&gt;FS1.1&lt;/font&gt;" style="rounded=0;whiteSpace=wrap;html=1;verticalAlign=bottom;" vertex="1" parent="1">
          <mxGeometry x="1115" y="561" width="30" height="15" as="geometry" />
        </mxCell>
        <mxCell id="mISJDo6eSEDkMryb6iE0-1" style="edgeStyle=orthogonalEdgeStyle;rounded=0;orthogonalLoop=1;jettySize=auto;html=1;exitX=0.5;exitY=1;exitDx=0;exitDy=0;" edge="1" parent="1" source="gIAgVm1k7l4mwWbKqYdj-1">
          <mxGeometry relative="1" as="geometry">
            <mxPoint x="1191" y="241" as="targetPoint" />
          </mxGeometry>
        </mxCell>
        <mxCell id="mISJDo6eSEDkMryb6iE0-2" value="12V" style="edgeLabel;html=1;align=center;verticalAlign=middle;resizable=0;points=[];" connectable="0" vertex="1" parent="mISJDo6eSEDkMryb6iE0-1">
          <mxGeometry x="-0.261" y="-1" relative="1" as="geometry">
            <mxPoint as="offset" />
          </mxGeometry>
        </mxCell>
        <mxCell id="qJTI-IWWP8wib8IFg3UO-18" style="edgeStyle=orthogonalEdgeStyle;rounded=0;orthogonalLoop=1;jettySize=auto;html=1;entryX=0.001;entryY=0.583;entryDx=0;entryDy=0;entryPerimeter=0;exitX=0;exitY=0.25;exitDx=0;exitDy=0;" edge="1" parent="1" source="5oKKVWqDUXdABvwz6CYf-1" target="qJTI-IWWP8wib8IFg3UO-1">
          <mxGeometry relative="1" as="geometry">
            <mxPoint x="1134" y="256" as="sourcePoint" />
            <mxPoint x="1105.109" y="680.9000000000001" as="targetPoint" />
            <Array as="points">
              <mxPoint x="1146" y="267" />
              <mxPoint x="904" y="267" />
              <mxPoint x="904" y="681" />
            </Array>
          </mxGeometry>
        </mxCell>
        <mxCell id="qJTI-IWWP8wib8IFg3UO-19" value="12V_mos" style="edgeLabel;html=1;align=center;verticalAlign=middle;resizable=0;points=[];" connectable="0" vertex="1" parent="qJTI-IWWP8wib8IFg3UO-18">
          <mxGeometry x="0.0129" relative="1" as="geometry">
            <mxPoint as="offset" />
          </mxGeometry>
        </mxCell>
        <mxCell id="T17h2pDCH6CZZqhaSbzE-1" style="edgeStyle=orthogonalEdgeStyle;rounded=0;orthogonalLoop=1;jettySize=auto;html=1;exitX=1;exitY=0.5;exitDx=0;exitDy=0;startArrow=classic;startFill=1;endArrow=none;endFill=0;" edge="1" parent="1" source="gIAgVm1k7l4mwWbKqYdj-1">
          <mxGeometry relative="1" as="geometry">
            <mxPoint x="1305.5118538992745" y="165.9523809523809" as="targetPoint" />
          </mxGeometry>
        </mxCell>
        <mxCell id="T17h2pDCH6CZZqhaSbzE-2" value="Valim" style="edgeLabel;html=1;align=center;verticalAlign=middle;resizable=0;points=[];" connectable="0" vertex="1" parent="T17h2pDCH6CZZqhaSbzE-1">
          <mxGeometry x="-0.0074" y="2" relative="1" as="geometry">
            <mxPoint x="2" as="offset" />
          </mxGeometry>
        </mxCell>
        <mxCell id="gIAgVm1k7l4mwWbKqYdj-1" value="&lt;font style=&quot;font-size: 11px;&quot;&gt;Alimentation 12V&lt;/font&gt;" style="rounded=0;whiteSpace=wrap;html=1;" vertex="1" parent="1">
          <mxGeometry x="1146" y="141" width="90" height="50" as="geometry" />
        </mxCell>
        <mxCell id="gIAgVm1k7l4mwWbKqYdj-2" value="&lt;font style=&quot;font-size: 8px;&quot;&gt;FS2.1&lt;/font&gt;" style="rounded=0;whiteSpace=wrap;html=1;verticalAlign=bottom;" vertex="1" parent="1">
          <mxGeometry x="1146" y="176" width="30" height="15" as="geometry" />
        </mxCell>
        <mxCell id="WTgQpNNvrwQHhC77sD9h-4" style="edgeStyle=orthogonalEdgeStyle;rounded=0;orthogonalLoop=1;jettySize=auto;html=1;exitX=1;exitY=0.5;exitDx=0;exitDy=0;entryX=0.5;entryY=0;entryDx=0;entryDy=0;" edge="1" parent="1" source="5oKKVWqDUXdABvwz6CYf-1" target="n-py6gcKPpPOA4WaPI53-1">
          <mxGeometry relative="1" as="geometry" />
        </mxCell>
        <mxCell id="WTgQpNNvrwQHhC77sD9h-5" value="12V_mos" style="edgeLabel;html=1;align=center;verticalAlign=middle;resizable=0;points=[];" connectable="0" vertex="1" parent="WTgQpNNvrwQHhC77sD9h-4">
          <mxGeometry x="0.6387" y="1" relative="1" as="geometry">
            <mxPoint x="-1" y="29" as="offset" />
          </mxGeometry>
        </mxCell>
        <mxCell id="5oKKVWqDUXdABvwz6CYf-1" value="&lt;span style=&quot;font-size: 11px;&quot;&gt;Mosfets&lt;br&gt;&lt;/span&gt;" style="rounded=0;whiteSpace=wrap;html=1;" vertex="1" parent="1">
          <mxGeometry x="1146" y="241" width="90" height="50" as="geometry" />
        </mxCell>
        <mxCell id="5oKKVWqDUXdABvwz6CYf-2" value="&lt;font style=&quot;font-size: 8px;&quot;&gt;FS2.2&lt;br&gt;&lt;/font&gt;" style="rounded=0;whiteSpace=wrap;html=1;verticalAlign=bottom;" vertex="1" parent="1">
          <mxGeometry x="1146" y="276" width="30" height="15" as="geometry" />
        </mxCell>
        <mxCell id="_fW-QyPUHDrgsMIgb5g3-1" style="edgeStyle=orthogonalEdgeStyle;rounded=0;orthogonalLoop=1;jettySize=auto;html=1;exitX=0;exitY=0.5;exitDx=0;exitDy=0;entryX=0.5;entryY=0;entryDx=0;entryDy=0;" edge="1" parent="1" source="n-py6gcKPpPOA4WaPI53-1" target="WTgQpNNvrwQHhC77sD9h-1">
          <mxGeometry relative="1" as="geometry" />
        </mxCell>
        <mxCell id="_fW-QyPUHDrgsMIgb5g3-3" value="5V" style="edgeLabel;html=1;align=center;verticalAlign=middle;resizable=0;points=[];" connectable="0" vertex="1" parent="_fW-QyPUHDrgsMIgb5g3-1">
          <mxGeometry x="-0.225" y="-1" relative="1" as="geometry">
            <mxPoint x="-22" y="31" as="offset" />
          </mxGeometry>
        </mxCell>
        <mxCell id="_fW-QyPUHDrgsMIgb5g3-2" style="edgeStyle=orthogonalEdgeStyle;rounded=0;orthogonalLoop=1;jettySize=auto;html=1;exitX=0.5;exitY=1;exitDx=0;exitDy=0;entryX=1;entryY=0.5;entryDx=0;entryDy=0;" edge="1" parent="1" source="n-py6gcKPpPOA4WaPI53-1" target="aAQ7I9S7EcGm0uIUGxsZ-1">
          <mxGeometry relative="1" as="geometry">
            <mxPoint x="1435" y="376" as="sourcePoint" />
            <mxPoint x="1515" y="506" as="targetPoint" />
          </mxGeometry>
        </mxCell>
        <mxCell id="_fW-QyPUHDrgsMIgb5g3-4" value="5V" style="edgeLabel;html=1;align=center;verticalAlign=middle;resizable=0;points=[];" connectable="0" vertex="1" parent="_fW-QyPUHDrgsMIgb5g3-2">
          <mxGeometry x="0.2523" relative="1" as="geometry">
            <mxPoint y="-86" as="offset" />
          </mxGeometry>
        </mxCell>
        <mxCell id="uDna-p3N4cvRORbNhkJ6-3" style="edgeStyle=orthogonalEdgeStyle;rounded=0;orthogonalLoop=1;jettySize=auto;html=1;exitX=1;exitY=0.25;exitDx=0;exitDy=0;entryX=1;entryY=0.5;entryDx=0;entryDy=0;" edge="1" parent="1" source="n-py6gcKPpPOA4WaPI53-1" target="uDna-p3N4cvRORbNhkJ6-1">
          <mxGeometry relative="1" as="geometry">
            <Array as="points">
              <mxPoint x="1585" y="353" />
              <mxPoint x="1585" y="621" />
            </Array>
          </mxGeometry>
        </mxCell>
        <mxCell id="uDna-p3N4cvRORbNhkJ6-4" value="5V" style="edgeLabel;html=1;align=center;verticalAlign=middle;resizable=0;points=[];" connectable="0" vertex="1" parent="uDna-p3N4cvRORbNhkJ6-3">
          <mxGeometry x="-0.2793" y="1" relative="1" as="geometry">
            <mxPoint y="-40" as="offset" />
          </mxGeometry>
        </mxCell>
        <mxCell id="n-py6gcKPpPOA4WaPI53-1" value="&lt;font style=&quot;font-size: 11px;&quot;&gt;RÃ©gulateur 5V&lt;/font&gt;" style="rounded=0;whiteSpace=wrap;html=1;" vertex="1" parent="1">
          <mxGeometry x="1470" y="341" width="90" height="50" as="geometry" />
        </mxCell>
        <mxCell id="n-py6gcKPpPOA4WaPI53-2" value="&lt;font style=&quot;font-size: 8px;&quot;&gt;FS2.3&lt;/font&gt;" style="rounded=0;whiteSpace=wrap;html=1;verticalAlign=bottom;" vertex="1" parent="1">
          <mxGeometry x="1470" y="376" width="30" height="15" as="geometry" />
        </mxCell>
        <mxCell id="eP5QoWUNaEuNs9g3UeQn-1" value="&lt;font style=&quot;font-size: 11px;&quot;&gt;RÃ©gulateur 3.3V&lt;/font&gt;" style="rounded=0;whiteSpace=wrap;html=1;" vertex="1" parent="1">
          <mxGeometry x="1146" y="341" width="90" height="50" as="geometry" />
        </mxCell>
        <mxCell id="eP5QoWUNaEuNs9g3UeQn-2" value="" style="endArrow=classic;html=1;rounded=0;entryX=0.299;entryY=-0.006;entryDx=0;entryDy=0;exitX=0.5;exitY=1;exitDx=0;exitDy=0;entryPerimeter=0;" edge="1" parent="1">
          <mxGeometry width="50" height="50" relative="1" as="geometry">
            <mxPoint x="1190.98" y="391.72" as="sourcePoint" />
            <mxPoint x="1190.83" y="446" as="targetPoint" />
          </mxGeometry>
        </mxCell>
        <mxCell id="eP5QoWUNaEuNs9g3UeQn-3" value="3V3" style="edgeLabel;html=1;align=center;verticalAlign=middle;resizable=0;points=[];" connectable="0" vertex="1" parent="eP5QoWUNaEuNs9g3UeQn-2">
          <mxGeometry x="-0.2467" relative="1" as="geometry">
            <mxPoint y="4" as="offset" />
          </mxGeometry>
        </mxCell>
        <mxCell id="eP5QoWUNaEuNs9g3UeQn-4" value="&lt;font style=&quot;font-size: 8px;&quot;&gt;FS2.4&lt;/font&gt;" style="rounded=0;whiteSpace=wrap;html=1;verticalAlign=bottom;" vertex="1" parent="1">
          <mxGeometry x="1146" y="376" width="30" height="15" as="geometry" />
        </mxCell>
        <mxCell id="WTgQpNNvrwQHhC77sD9h-1" value="&lt;span style=&quot;font-size: 11px;&quot;&gt;Anneau LEDs&lt;/span&gt;" style="rounded=0;whiteSpace=wrap;html=1;" vertex="1" parent="1">
          <mxGeometry x="1345" y="436" width="90" height="50" as="geometry" />
        </mxCell>
        <mxCell id="WTgQpNNvrwQHhC77sD9h-2" value="&lt;font style=&quot;font-size: 8px;&quot;&gt;FS3.1&lt;/font&gt;" style="rounded=0;whiteSpace=wrap;html=1;verticalAlign=bottom;" vertex="1" parent="1">
          <mxGeometry x="1345" y="471" width="30" height="15" as="geometry" />
        </mxCell>
        <mxCell id="aAQ7I9S7EcGm0uIUGxsZ-1" value="&lt;font style=&quot;font-size: 11px;&quot;&gt;ECRAN TFT&lt;/font&gt;" style="rounded=0;whiteSpace=wrap;html=1;" vertex="1" parent="1">
          <mxGeometry x="1345" y="496" width="90" height="80" as="geometry" />
        </mxCell>
        <mxCell id="aAQ7I9S7EcGm0uIUGxsZ-2" value="&lt;font style=&quot;font-size: 8px;&quot;&gt;FS3.2&lt;/font&gt;" style="rounded=0;whiteSpace=wrap;html=1;verticalAlign=bottom;" vertex="1" parent="1">
          <mxGeometry x="1345" y="561" width="30" height="15" as="geometry" />
        </mxCell>
        <mxCell id="os8_EA4S4uFS31SUPYtw-2" style="edgeStyle=orthogonalEdgeStyle;rounded=0;orthogonalLoop=1;jettySize=auto;html=1;exitX=1;exitY=0.25;exitDx=0;exitDy=0;entryX=0;entryY=0.5;entryDx=0;entryDy=0;" edge="1" parent="1" target="WTgQpNNvrwQHhC77sD9h-1">
          <mxGeometry relative="1" as="geometry">
            <mxPoint x="1266" y="460.5799999999998" as="sourcePoint" />
            <mxPoint x="1341.0700000000002" y="461.4150000000001" as="targetPoint" />
          </mxGeometry>
        </mxCell>
        <mxCell id="os8_EA4S4uFS31SUPYtw-3" value="S&lt;sub&gt;LEDs&lt;/sub&gt;" style="edgeLabel;html=1;align=center;verticalAlign=middle;resizable=0;points=[];" connectable="0" vertex="1" parent="os8_EA4S4uFS31SUPYtw-2">
          <mxGeometry x="0.071" y="1" relative="1" as="geometry">
            <mxPoint as="offset" />
          </mxGeometry>
        </mxCell>
        <mxCell id="os8_EA4S4uFS31SUPYtw-4" style="edgeStyle=orthogonalEdgeStyle;rounded=0;orthogonalLoop=1;jettySize=auto;html=1;exitX=1;exitY=0.5;exitDx=0;exitDy=0;entryX=0.004;entryY=0.06;entryDx=0;entryDy=0;entryPerimeter=0;" edge="1" parent="1">
          <mxGeometry relative="1" as="geometry">
            <mxPoint x="1266.18" y="505.31" as="sourcePoint" />
            <mxPoint x="1345.5400000000002" y="505.00000000000006" as="targetPoint" />
          </mxGeometry>
        </mxCell>
        <mxCell id="os8_EA4S4uFS31SUPYtw-5" value="SCL" style="edgeLabel;html=1;align=center;verticalAlign=middle;resizable=0;points=[];" connectable="0" vertex="1" parent="os8_EA4S4uFS31SUPYtw-4">
          <mxGeometry x="-0.0154" y="-1" relative="1" as="geometry">
            <mxPoint as="offset" />
          </mxGeometry>
        </mxCell>
        <mxCell id="os8_EA4S4uFS31SUPYtw-6" style="edgeStyle=orthogonalEdgeStyle;rounded=0;orthogonalLoop=1;jettySize=auto;html=1;exitX=1;exitY=0.5;exitDx=0;exitDy=0;entryX=0;entryY=0.25;entryDx=0;entryDy=0;" edge="1" parent="1">
          <mxGeometry relative="1" as="geometry">
            <mxPoint x="1266.18" y="519.2" as="sourcePoint" />
            <mxPoint x="1345.18" y="520.2" as="targetPoint" />
          </mxGeometry>
        </mxCell>
        <mxCell id="os8_EA4S4uFS31SUPYtw-7" value="SDA" style="edgeLabel;html=1;align=center;verticalAlign=middle;resizable=0;points=[];" connectable="0" vertex="1" parent="os8_EA4S4uFS31SUPYtw-6">
          <mxGeometry x="-0.0154" y="-1" relative="1" as="geometry">
            <mxPoint y="-1" as="offset" />
          </mxGeometry>
        </mxCell>
        <mxCell id="os8_EA4S4uFS31SUPYtw-9" style="edgeStyle=orthogonalEdgeStyle;rounded=0;orthogonalLoop=1;jettySize=auto;html=1;exitX=1;exitY=0.5;exitDx=0;exitDy=0;entryX=-0.004;entryY=0.374;entryDx=0;entryDy=0;entryPerimeter=0;" edge="1" parent="1">
          <mxGeometry relative="1" as="geometry">
            <mxPoint x="1266.18" y="535.2" as="sourcePoint" />
            <mxPoint x="1344.8200000000002" y="535.23" as="targetPoint" />
          </mxGeometry>
        </mxCell>
        <mxCell id="os8_EA4S4uFS31SUPYtw-10" value="S&lt;sub&gt;RES&lt;/sub&gt;" style="edgeLabel;html=1;align=center;verticalAlign=middle;resizable=0;points=[];" connectable="0" vertex="1" parent="os8_EA4S4uFS31SUPYtw-9">
          <mxGeometry x="-0.0154" y="-1" relative="1" as="geometry">
            <mxPoint as="offset" />
          </mxGeometry>
        </mxCell>
        <mxCell id="os8_EA4S4uFS31SUPYtw-11" style="edgeStyle=orthogonalEdgeStyle;rounded=0;orthogonalLoop=1;jettySize=auto;html=1;exitX=1;exitY=0.5;exitDx=0;exitDy=0;entryX=0.002;entryY=0.523;entryDx=0;entryDy=0;entryPerimeter=0;" edge="1" parent="1">
          <mxGeometry relative="1" as="geometry">
            <mxPoint x="1266" y="550.3600000000001" as="sourcePoint" />
            <mxPoint x="1345.1799999999998" y="550.2" as="targetPoint" />
          </mxGeometry>
        </mxCell>
        <mxCell id="os8_EA4S4uFS31SUPYtw-12" value="S&lt;sub&gt;DC&lt;/sub&gt;" style="edgeLabel;html=1;align=center;verticalAlign=middle;resizable=0;points=[];" connectable="0" vertex="1" parent="os8_EA4S4uFS31SUPYtw-11">
          <mxGeometry x="-0.0154" y="-1" relative="1" as="geometry">
            <mxPoint as="offset" />
          </mxGeometry>
        </mxCell>
        <mxCell id="uDna-p3N4cvRORbNhkJ6-1" value="&lt;font style=&quot;font-size: 11px;&quot;&gt;Capteur infrarouge&lt;/font&gt;" style="rounded=0;whiteSpace=wrap;html=1;verticalAlign=middle;" vertex="1" parent="1">
          <mxGeometry x="1340.5" y="596" width="99" height="50" as="geometry" />
        </mxCell>
        <mxCell id="uDna-p3N4cvRORbNhkJ6-2" value="&lt;font style=&quot;font-size: 8px;&quot;&gt;FS4.1&lt;br&gt;&lt;/font&gt;" style="rounded=0;whiteSpace=wrap;html=1;verticalAlign=bottom;" vertex="1" parent="1">
          <mxGeometry x="1340.5" y="631" width="30" height="15" as="geometry" />
        </mxCell>
        <mxCell id="Om7QMb_mornrVC4fpEzm-1" style="edgeStyle=orthogonalEdgeStyle;rounded=0;orthogonalLoop=1;jettySize=auto;html=1;exitX=0;exitY=0.5;exitDx=0;exitDy=0;" edge="1" parent="1" source="uDna-p3N4cvRORbNhkJ6-1">
          <mxGeometry relative="1" as="geometry">
            <mxPoint x="1265" y="576" as="targetPoint" />
            <Array as="points">
              <mxPoint x="1265" y="621" />
              <mxPoint x="1265" y="596" />
              <mxPoint x="1265" y="596" />
            </Array>
          </mxGeometry>
        </mxCell>
        <mxCell id="Om7QMb_mornrVC4fpEzm-2" value="Scapteur" style="edgeLabel;html=1;align=center;verticalAlign=middle;resizable=0;points=[];" connectable="0" vertex="1" parent="Om7QMb_mornrVC4fpEzm-1">
          <mxGeometry x="-0.3095" relative="1" as="geometry">
            <mxPoint as="offset" />
          </mxGeometry>
        </mxCell>
        <mxCell id="qJTI-IWWP8wib8IFg3UO-1" value="&lt;span style=&quot;font-size: 11px;&quot;&gt;Drivers moteur&lt;/span&gt;" style="rounded=0;whiteSpace=wrap;html=1;" vertex="1" parent="1">
          <mxGeometry x="1136" y="646" width="109" height="60" as="geometry" />
        </mxCell>
        <mxCell id="qJTI-IWWP8wib8IFg3UO-4" value="&lt;span style=&quot;font-size: 11px;&quot;&gt;Moteurs&lt;/span&gt;" style="rounded=0;whiteSpace=wrap;html=1;" vertex="1" parent="1">
          <mxGeometry x="1136" y="736" width="109" height="60" as="geometry" />
        </mxCell>
        <mxCell id="qJTI-IWWP8wib8IFg3UO-7" value="&lt;font style=&quot;font-size: 8px;&quot;&gt;FS5.1&lt;br&gt;&lt;/font&gt;" style="rounded=0;whiteSpace=wrap;html=1;verticalAlign=bottom;" vertex="1" parent="1">
          <mxGeometry x="1136" y="691" width="30" height="15" as="geometry" />
        </mxCell>
        <mxCell id="qJTI-IWWP8wib8IFg3UO-8" value="&lt;font style=&quot;font-size: 8px;&quot;&gt;FS5.2&lt;br&gt;&lt;/font&gt;" style="rounded=0;whiteSpace=wrap;html=1;verticalAlign=bottom;" vertex="1" parent="1">
          <mxGeometry x="1136" y="781" width="30" height="15" as="geometry" />
        </mxCell>
        <mxCell id="qJTI-IWWP8wib8IFg3UO-9" style="edgeStyle=orthogonalEdgeStyle;rounded=0;orthogonalLoop=1;jettySize=auto;html=1;exitX=1;exitY=1;exitDx=0;exitDy=0;entryX=0.227;entryY=0.008;entryDx=0;entryDy=0;entryPerimeter=0;" edge="1" parent="1" target="qJTI-IWWP8wib8IFg3UO-1">
          <mxGeometry relative="1" as="geometry">
            <mxPoint x="1160.85" y="576.36" as="sourcePoint" />
            <mxPoint x="1161.1149999999998" y="631.0000000000001" as="targetPoint" />
          </mxGeometry>
        </mxCell>
        <mxCell id="qJTI-IWWP8wib8IFg3UO-14" value="Com" style="edgeLabel;html=1;align=center;verticalAlign=middle;resizable=0;points=[];" connectable="0" vertex="1" parent="qJTI-IWWP8wib8IFg3UO-9">
          <mxGeometry x="0.0633" y="1" relative="1" as="geometry">
            <mxPoint x="-2" as="offset" />
          </mxGeometry>
        </mxCell>
        <mxCell id="qJTI-IWWP8wib8IFg3UO-10" style="edgeStyle=orthogonalEdgeStyle;rounded=0;orthogonalLoop=1;jettySize=auto;html=1;exitX=1;exitY=1;exitDx=0;exitDy=0;entryX=0.446;entryY=0.017;entryDx=0;entryDy=0;entryPerimeter=0;" edge="1" parent="1" target="qJTI-IWWP8wib8IFg3UO-1">
          <mxGeometry relative="1" as="geometry">
            <mxPoint x="1185.02" y="576" as="sourcePoint" />
            <mxPoint x="1185.02" y="631" as="targetPoint" />
            <Array as="points">
              <mxPoint x="1185" y="606" />
              <mxPoint x="1185" y="606" />
            </Array>
          </mxGeometry>
        </mxCell>
        <mxCell id="qJTI-IWWP8wib8IFg3UO-15" value="S&lt;sub&gt;EN&lt;/sub&gt;" style="edgeLabel;html=1;align=center;verticalAlign=middle;resizable=0;points=[];" connectable="0" vertex="1" parent="qJTI-IWWP8wib8IFg3UO-10">
          <mxGeometry x="-0.4393" y="-1" relative="1" as="geometry">
            <mxPoint as="offset" />
          </mxGeometry>
        </mxCell>
        <mxCell id="qJTI-IWWP8wib8IFg3UO-11" style="edgeStyle=orthogonalEdgeStyle;rounded=0;orthogonalLoop=1;jettySize=auto;html=1;exitX=1;exitY=1;exitDx=0;exitDy=0;entryX=0.631;entryY=0.006;entryDx=0;entryDy=0;entryPerimeter=0;" edge="1" parent="1" target="qJTI-IWWP8wib8IFg3UO-1">
          <mxGeometry relative="1" as="geometry">
            <mxPoint x="1205" y="576" as="sourcePoint" />
            <mxPoint x="1205" y="631" as="targetPoint" />
          </mxGeometry>
        </mxCell>
        <mxCell id="qJTI-IWWP8wib8IFg3UO-16" value="S&lt;sub&gt;STP&lt;/sub&gt;" style="edgeLabel;html=1;align=center;verticalAlign=middle;resizable=0;points=[];" connectable="0" vertex="1" parent="qJTI-IWWP8wib8IFg3UO-11">
          <mxGeometry x="0.0583" y="-1" relative="1" as="geometry">
            <mxPoint as="offset" />
          </mxGeometry>
        </mxCell>
        <mxCell id="qJTI-IWWP8wib8IFg3UO-12" style="edgeStyle=orthogonalEdgeStyle;rounded=0;orthogonalLoop=1;jettySize=auto;html=1;exitX=1;exitY=1;exitDx=0;exitDy=0;entryX=0.813;entryY=0.002;entryDx=0;entryDy=0;entryPerimeter=0;" edge="1" parent="1" target="qJTI-IWWP8wib8IFg3UO-1">
          <mxGeometry relative="1" as="geometry">
            <mxPoint x="1225" y="576" as="sourcePoint" />
            <mxPoint x="1225" y="631" as="targetPoint" />
          </mxGeometry>
        </mxCell>
        <mxCell id="qJTI-IWWP8wib8IFg3UO-17" value="S&lt;sub&gt;Dir&lt;/sub&gt;" style="edgeLabel;html=1;align=center;verticalAlign=middle;resizable=0;points=[];" connectable="0" vertex="1" parent="qJTI-IWWP8wib8IFg3UO-12">
          <mxGeometry x="-0.4967" relative="1" as="geometry">
            <mxPoint x="1" y="2" as="offset" />
          </mxGeometry>
        </mxCell>
        <mxCell id="Mn54Tx_jZVog5QXMtBne-1" value="&lt;font style=&quot;font-size: 11px;&quot;&gt;Bouton power&lt;/font&gt;" style="rounded=0;whiteSpace=wrap;html=1;" vertex="1" parent="1">
          <mxGeometry x="955" y="426" width="90" height="50" as="geometry" />
        </mxCell>
        <mxCell id="Mn54Tx_jZVog5QXMtBne-2" value="&lt;font style=&quot;font-size: 8px;&quot;&gt;FS2.5&lt;/font&gt;" style="rounded=0;whiteSpace=wrap;html=1;verticalAlign=bottom;" vertex="1" parent="1">
          <mxGeometry x="955" y="461" width="30" height="15" as="geometry" />
        </mxCell>
        <mxCell id="Mn54Tx_jZVog5QXMtBne-3" style="edgeStyle=orthogonalEdgeStyle;rounded=0;orthogonalLoop=1;jettySize=auto;html=1;exitX=1;exitY=0.5;exitDx=0;exitDy=0;entryX=0.003;entryY=0.045;entryDx=0;entryDy=0;entryPerimeter=0;" edge="1" parent="1" source="Mn54Tx_jZVog5QXMtBne-1" target="AZXQSuadQRg0XgxkF6D4-1">
          <mxGeometry relative="1" as="geometry" />
        </mxCell>
        <mxCell id="Mn54Tx_jZVog5QXMtBne-4" value="S&lt;sub&gt;bouton&lt;/sub&gt;" style="edgeLabel;html=1;align=center;verticalAlign=middle;resizable=0;points=[];" connectable="0" vertex="1" parent="Mn54Tx_jZVog5QXMtBne-3">
          <mxGeometry x="-0.3373" relative="1" as="geometry">
            <mxPoint x="6" as="offset" />
          </mxGeometry>
        </mxCell>
        <mxCell id="T17h2pDCH6CZZqhaSbzE-5" style="edgeStyle=orthogonalEdgeStyle;rounded=0;orthogonalLoop=1;jettySize=auto;html=1;exitX=1;exitY=0.5;exitDx=0;exitDy=0;entryX=0;entryY=0.5;entryDx=0;entryDy=0;" edge="1" parent="1" source="920JxmNDwIIF9p_bPhls-1" target="AZXQSuadQRg0XgxkF6D4-1">
          <mxGeometry relative="1" as="geometry" />
        </mxCell>
        <mxCell id="T17h2pDCH6CZZqhaSbzE-6" value="SHorloge" style="edgeLabel;html=1;align=center;verticalAlign=middle;resizable=0;points=[];" connectable="0" vertex="1" parent="T17h2pDCH6CZZqhaSbzE-5">
          <mxGeometry x="-0.1246" y="-1" relative="1" as="geometry">
            <mxPoint as="offset" />
          </mxGeometry>
        </mxCell>
        <mxCell id="920JxmNDwIIF9p_bPhls-1" value="&lt;font style=&quot;font-size: 11px;&quot;&gt;Horloge&lt;/font&gt;" style="rounded=0;whiteSpace=wrap;html=1;" vertex="1" parent="1">
          <mxGeometry x="955" y="486" width="90" height="50" as="geometry" />
        </mxCell>
        <mxCell id="920JxmNDwIIF9p_bPhls-2" value="&lt;font style=&quot;font-size: 8px;&quot;&gt;FS1.2&lt;/font&gt;" style="rounded=0;whiteSpace=wrap;html=1;verticalAlign=bottom;" vertex="1" parent="1">
          <mxGeometry x="955" y="521" width="30" height="15" as="geometry" />
        </mxCell>
        <mxCell id="hB7fKGdTIQhKiEBvnz3H-1" value="&lt;font style=&quot;font-size: 11px;&quot;&gt;Programmation&lt;/font&gt;" style="rounded=0;whiteSpace=wrap;html=1;" vertex="1" parent="1">
          <mxGeometry x="955" y="546" width="90" height="50" as="geometry" />
        </mxCell>
        <mxCell id="hB7fKGdTIQhKiEBvnz3H-2" value="&lt;font style=&quot;font-size: 11px;&quot;&gt;RÃ©initialisation&lt;/font&gt;" style="rounded=0;whiteSpace=wrap;html=1;" vertex="1" parent="1">
          <mxGeometry x="955" y="606" width="90" height="50" as="geometry" />
        </mxCell>
        <mxCell id="hB7fKGdTIQhKiEBvnz3H-3" value="&lt;font style=&quot;font-size: 8px;&quot;&gt;FS1.3&lt;/font&gt;" style="rounded=0;whiteSpace=wrap;html=1;verticalAlign=bottom;" vertex="1" parent="1">
          <mxGeometry x="955" y="581" width="30" height="15" as="geometry" />
        </mxCell>
        <mxCell id="hB7fKGdTIQhKiEBvnz3H-4" value="&lt;font style=&quot;font-size: 8px;&quot;&gt;FS1.4&lt;/font&gt;" style="rounded=0;whiteSpace=wrap;html=1;verticalAlign=bottom;" vertex="1" parent="1">
          <mxGeometry x="955" y="641" width="30" height="15" as="geometry" />
        </mxCell>
        <mxCell id="hB7fKGdTIQhKiEBvnz3H-5" style="edgeStyle=orthogonalEdgeStyle;rounded=0;orthogonalLoop=1;jettySize=auto;html=1;exitX=1;exitY=0.5;exitDx=0;exitDy=0;entryX=0.002;entryY=0.767;entryDx=0;entryDy=0;entryPerimeter=0;startArrow=classic;startFill=1;" edge="1" parent="1" source="hB7fKGdTIQhKiEBvnz3H-1" target="AZXQSuadQRg0XgxkF6D4-1">
          <mxGeometry relative="1" as="geometry" />
        </mxCell>
        <mxCell id="hB7fKGdTIQhKiEBvnz3H-6" value="S&lt;sub&gt;prog&lt;/sub&gt;" style="edgeLabel;html=1;align=center;verticalAlign=middle;resizable=0;points=[];" connectable="0" vertex="1" parent="hB7fKGdTIQhKiEBvnz3H-5">
          <mxGeometry x="-0.3145" relative="1" as="geometry">
            <mxPoint y="-10" as="offset" />
          </mxGeometry>
        </mxCell>
        <mxCell id="wHkeo7JPlHIcUM6tcBzw-1" style="edgeStyle=orthogonalEdgeStyle;rounded=0;orthogonalLoop=1;jettySize=auto;html=1;exitX=1;exitY=0.5;exitDx=0;exitDy=0;entryX=0.186;entryY=1.145;entryDx=0;entryDy=0;entryPerimeter=0;" edge="1" parent="1" source="hB7fKGdTIQhKiEBvnz3H-2" target="AZXQSuadQRg0XgxkF6D4-2">
          <mxGeometry relative="1" as="geometry" />
        </mxCell>
        <mxCell id="wHkeo7JPlHIcUM6tcBzw-2" value="S&lt;sub&gt;reset&lt;/sub&gt;" style="edgeLabel;html=1;align=center;verticalAlign=middle;resizable=0;points=[];" connectable="0" vertex="1" parent="wHkeo7JPlHIcUM6tcBzw-1">
          <mxGeometry x="-0.3714" relative="1" as="geometry">
            <mxPoint as="offset" />
          </mxGeometry>
        </mxCell>
        <mxCell id="T17h2pDCH6CZZqhaSbzE-3" style="edgeStyle=orthogonalEdgeStyle;rounded=0;orthogonalLoop=1;jettySize=auto;html=1;exitX=1;exitY=0.5;exitDx=0;exitDy=0;entryX=0.002;entryY=0.523;entryDx=0;entryDy=0;entryPerimeter=0;" edge="1" parent="1">
          <mxGeometry relative="1" as="geometry">
            <mxPoint x="1265.82" y="565.3100000000002" as="sourcePoint" />
            <mxPoint x="1344.9999999999998" y="565.1500000000001" as="targetPoint" />
          </mxGeometry>
        </mxCell>
        <mxCell id="T17h2pDCH6CZZqhaSbzE-4" value="S&lt;font size=&quot;1&quot;&gt;CS&lt;/font&gt;" style="edgeLabel;html=1;align=center;verticalAlign=middle;resizable=0;points=[];" connectable="0" vertex="1" parent="T17h2pDCH6CZZqhaSbzE-3">
          <mxGeometry x="-0.0154" y="-1" relative="1" as="geometry">
            <mxPoint y="-1" as="offset" />
          </mxGeometry>
        </mxCell>
        <mxCell id="T17h2pDCH6CZZqhaSbzE-9" value="" style="shape=requiredInterface;html=1;verticalLabelPosition=bottom;sketch=0;" vertex="1" parent="1">
          <mxGeometry x="1302" y="256" width="10" height="20" as="geometry" />
        </mxCell>
        <mxCell id="T17h2pDCH6CZZqhaSbzE-10" value="" style="endArrow=none;html=1;rounded=0;entryX=0.75;entryY=1;entryDx=0;entryDy=0;" edge="1" parent="1" target="gIAgVm1k7l4mwWbKqYdj-1">
          <mxGeometry width="50" height="50" relative="1" as="geometry">
            <mxPoint x="1213" y="211" as="sourcePoint" />
            <mxPoint x="1297" y="247" as="targetPoint" />
          </mxGeometry>
        </mxCell>
        <mxCell id="T17h2pDCH6CZZqhaSbzE-11" value="" style="endArrow=none;html=1;rounded=0;" edge="1" parent="1">
          <mxGeometry width="50" height="50" relative="1" as="geometry">
            <mxPoint x="1301" y="211" as="sourcePoint" />
            <mxPoint x="1213" y="211" as="targetPoint" />
          </mxGeometry>
        </mxCell>
        <mxCell id="T17h2pDCH6CZZqhaSbzE-12" value="" style="endArrow=none;html=1;rounded=0;entryX=0.75;entryY=1;entryDx=0;entryDy=0;" edge="1" parent="1">
          <mxGeometry width="50" height="50" relative="1" as="geometry">
            <mxPoint x="1302" y="256" as="sourcePoint" />
            <mxPoint x="1301" y="211" as="targetPoint" />
          </mxGeometry>
        </mxCell>
        <mxCell id="T17h2pDCH6CZZqhaSbzE-13" value="" style="endArrow=none;html=1;rounded=0;entryX=0.75;entryY=1;entryDx=0;entryDy=0;" edge="1" parent="1">
          <mxGeometry width="50" height="50" relative="1" as="geometry">
            <mxPoint x="1304" y="368" as="sourcePoint" />
            <mxPoint x="1302" y="276" as="targetPoint" />
          </mxGeometry>
        </mxCell>
        <mxCell id="T17h2pDCH6CZZqhaSbzE-16" value="12V" style="edgeLabel;html=1;align=center;verticalAlign=middle;resizable=0;points=[];" connectable="0" vertex="1" parent="T17h2pDCH6CZZqhaSbzE-13">
          <mxGeometry x="0.0618" relative="1" as="geometry">
            <mxPoint as="offset" />
          </mxGeometry>
        </mxCell>
        <mxCell id="T17h2pDCH6CZZqhaSbzE-14" value="" style="endArrow=none;html=1;rounded=0;" edge="1" parent="1">
          <mxGeometry width="50" height="50" relative="1" as="geometry">
            <mxPoint x="1304" y="368" as="sourcePoint" />
            <mxPoint x="1236" y="368" as="targetPoint" />
          </mxGeometry>
        </mxCell>
        <mxCell id="T17h2pDCH6CZZqhaSbzE-15" value="" style="endArrow=classic;html=1;rounded=0;entryX=0.986;entryY=0.54;entryDx=0;entryDy=0;entryPerimeter=0;" edge="1" parent="1" target="eP5QoWUNaEuNs9g3UeQn-1">
          <mxGeometry width="50" height="50" relative="1" as="geometry">
            <mxPoint x="1304" y="368" as="sourcePoint" />
            <mxPoint x="1291" y="321" as="targetPoint" />
          </mxGeometry>
        </mxCell>
      </root>
    </mxGraphModel>
  </diagram>
</mxfile>
